# xmcd
#
# Track frame offsets: 
#        150
#        17715
#        37990
#        57907
#        81700
#        103225
#        122950
#        136552
#        150392
#        177000
#        200812
#        218752
#
# Disc length: 3164 seconds
#
# Revision: 4
# Processed by: cddbd v1.5.2PL0 Copyright (c) Steve Scherf et al.
# Submitted via: ExactAudioCopy v0.95b4
#
DISCID=a30c5a0c
DTITLE=Shepard, Vonda - It's Good, Eve
DYEAR=2001
DGENRE=Easy Listening
TTITLE0=Maryland
TTITLE1=A Lucky Life
TTITLE2=Grain Of Sand
TTITLE3=The Wildest Times Of The World
TTITLE4=Like A Hemisphere
TTITLE5=Naivete
TTITLE6=Long Term Boyfriend
TTITLE7=Every Now and Then
TTITLE8=Mischief and Control
TTITLE9=Hotel Room View
TTITLE10=This Steady Train
TTITLE11=Serious Richard
EXTD=YEAR: 2001
EXTT0=
EXTT1=
EXTT2=
EXTT3=
EXTT4=
EXTT5=
EXTT6=
EXTT7=
EXTT8=
EXTT9=
EXTT10=
EXTT11=
PLAYORDER=
